<svg xmlns="http://www.w3.org/2000/svg" preserveAspectRatio="xMidYMid meet" viewBox="145 26 280 162" role="img" aria-labelledby="title desc">
  <title id="title">Ramani Warehouse logo</title>
  <desc id="desc">Official Ramani logo converted from the provided PDF artwork.</desc>
  <g transform="matrix(1 0 0 -1 0 841.8898)">
  <path d="M 221.9564 773.5720 L 221.9564 753.2566 L 225.8175 753.2566 C 229.8917 753.2263 232.7255 753.8258 234.3192 755.0456 C 236.1895 756.4513 237.1226 759.1711 237.1226 763.2099 C 237.1226 767.1214 236.2204 769.8614 234.4079 771.4168 C 232.7559 772.8860 229.9524 773.6029 226.0006 773.5720 Z Z M 230.2296 722.0472 L 230.2296 714.8769 L 189.9184 714.8769 L 189.9184 722.0472 L 198.1896 722.0472 L 198.1896 773.5720 L 189.9184 773.5720 L 189.9184 780.7448 L 238.7313 780.7448 C 244.7070 780.7448 249.5968 779.7183 253.3944 777.6641 C 258.2691 775.0899 260.7015 771.0639 260.7015 765.5760 C 260.7015 754.8503 252.7055 749.0296 236.7082 748.1095 C 242.6559 747.1874 246.8367 746.2545 249.2566 745.3063 C 253.9434 743.4360 256.7648 740.5381 257.7129 736.6167 C 257.9284 734.1684 258.1597 731.7312 258.4037 729.3090 C 258.8944 725.6035 254.5024 714.5623 261.1641 710.5130 C 262.3666 709.7811 269.7219 708.2459 272.3270 710.5130 L 273.5425 706.2588 C 268.8228 701.5056 247.4116 705.4475 247.4116 705.4475 C 237.0260 707.2724 234.2730 720.2251 234.2730 734.2296 C 234.2730 741.9178 231.1189 745.7357 224.8053 745.6723 L 221.9564 745.6723 L 221.9564 722.0472 Z" fill="#0038ff" fill-rule="nonzero"/>
  <path d="M 279.5224 736.0007 L 276.9423 744.9647 L 274.3047 736.0007 Z Z M 277.6161 757.3683 L 281.5101 757.3683 L 289.9052 728.3066 L 292.7769 728.3066 L 292.7769 724.7563 L 278.9252 724.7563 L 278.9252 728.3066 L 281.7797 728.3066 L 280.5951 732.4523 L 273.2751 732.4523 C 272.8125 731.0395 272.5784 730.0480 272.5784 729.4680 C 272.5784 728.8152 272.9806 728.4291 273.7780 728.3066 L 275.4992 728.3066 L 275.4992 724.7563 L 266.2526 724.7563 L 266.2526 728.3066 C 267.5769 728.3066 268.4611 728.5510 268.9033 729.0386 C 269.2723 729.4456 269.7219 730.5690 270.2608 732.4061 Z" fill="#2b6e00" fill-rule="nonzero"/>
  <path d="M 212.3844 691.7953 L 216.0998 700.8335 L 245.7459 679.1380 L 205.2272 664.0988 L 207.4283 671.3807 C 207.4283 671.3807 171.4910 675.8518 163.6197 702.3308 C 163.6197 702.3308 155.4049 730.5381 184.7968 753.8502 C 184.7968 753.8502 161.4110 727.8029 173.8879 708.6745 C 173.8879 708.6745 180.4759 695.1376 212.3844 691.7953" fill="#63ff00" fill-rule="nonzero"/>
  <path d="M 162.5649 711.9159 C 162.6154 722.1813 166.0853 739.0100 184.7968 753.8502 L 181.7368 761.1863 C 181.7368 761.1863 158.6248 744.7997 160.8871 720.0947 Z" fill="#2b6e00" fill-rule="nonzero"/>
  <path d="M 170.2230 721.4233 C 169.3692 725.6886 171.2503 712.7178 173.8879 708.6745 C 173.8879 708.6745 180.4759 695.1376 212.3844 691.7953 L 216.1006 700.8330 L 245.7465 679.1372 L 243.5757 689.2764 L 214.3261 710.0161 L 210.6105 700.9775 C 210.6105 700.9775 173.3672 705.7485 170.2230 721.4233" fill="#2b6e00" fill-rule="nonzero"/>
  <path d="M 275.6390 779.7189 L 268.5784 772.9608 L 250.2660 804.8100 L 293.4082 802.1392 L 288.4439 796.3719 C 288.4439 796.3719 319.4855 777.7210 315.9473 750.3245 C 315.9473 750.3245 312.0310 721.2070 275.7081 711.8079 C 275.7081 711.8079 307.6438 726.1430 303.9888 748.6875 C 303.9888 748.6875 303.4551 763.7315 275.6390 779.7189" fill="#2b6e00" fill-rule="nonzero"/>
  <path d="M 275.1024 778.7945 L 275.6404 779.7197 M 276.1744 780.6498 C 304.2448 764.5507 305.0734 749.0622 305.0481 748.8561 C 305.2491 747.5879 305.3455 746.3322 305.3455 745.0994 C 305.2261 731.9920 294.4239 722.1784 285.9931 716.4831 C 297.3951 721.5256 304.3210 728.7109 308.5532 735.1815 C 313.9489 743.4445 314.8869 750.4549 314.8869 750.4597 C 315.0649 751.8986 315.1562 753.3043 315.1562 754.6788 C 315.1613 766.7671 308.4106 776.9696 301.5609 784.1650 C 294.7187 791.3503 287.9073 795.4526 287.8943 795.4577 L 286.8035 796.1134 L 291.1904 801.2092 L 252.1840 803.6235 L 268.8211 774.6820 L 274.9014 780.4899 L 275.4754 781.0489 Z Z M 275.2673 712.7847 C 275.2724 712.8071 282.2998 715.9442 289.3229 721.6121 C 296.3684 727.2901 303.2280 735.4077 303.2101 745.0994 C 303.2101 746.2205 303.1166 747.3589 302.9153 748.6529 C 302.8975 748.6529 302.8975 749.4231 302.4451 750.9886 C 301.9853 752.5613 301.0904 754.8469 299.3391 757.6401 C 295.8931 763.1374 289.1271 770.6078 275.7960 778.3926 L 268.3261 771.2456 L 248.3433 806.0054 L 295.6258 803.0775 L 290.0551 796.6091 C 295.1813 793.2183 317.1974 777.5286 317.2941 754.6788 C 317.2941 753.2099 317.1997 751.7154 317.0064 750.1825 C 317.0166 750.0305 312.8811 720.3260 275.9763 710.7718 Z" fill="#ffffff" fill-rule="nonzero"/>
  <path d="M 302.1741 735.5489 C 301.2287 731.3017 304.7641 743.9207 303.9888 748.6866 C 303.9888 748.6866 303.4551 763.7309 275.6390 779.7183 L 268.5784 772.9622 L 250.2655 804.8095 L 248.1437 794.6600 L 266.4788 763.8477 L 273.5396 770.6064 C 273.5396 770.6064 305.6511 751.1522 302.1741 735.5489" fill="#2b6e00" fill-rule="nonzero"/>
  <path d="M 313.0308 741.1368 C 308.8242 731.7714 298.8332 717.7921 275.7090 711.8084 L 275.5361 703.8609 C 275.5361 703.8609 303.3068 709.4755 311.2492 732.9762 Z" fill="#2b6e00" fill-rule="nonzero"/>
  <path d="M 314.7369 753.8193 L 311.8983 753.8193 L 311.8983 757.3677 L 323.9561 757.3677 L 327.3157 742.7809 L 330.5974 757.3677 L 342.9371 757.3677 L 342.9371 753.8193 L 340.1005 753.8193 L 340.1005 728.3061 L 342.9371 728.3061 L 342.9371 724.7554 L 329.0975 724.7554 L 329.0975 728.3061 L 331.9418 728.3061 L 331.9418 750.5887 L 326.0404 724.7554 L 323.4526 724.7554 L 317.4698 750.6984 L 317.4698 730.1310 C 317.4698 728.8707 318.0008 728.2403 319.0606 728.2403 C 319.2004 728.2403 319.4093 728.2505 319.6959 728.2735 C 319.9785 728.2959 320.1846 728.3061 320.3113 728.3061 L 320.3113 724.7554 L 311.8983 724.7554 L 311.8983 728.3061 C 312.0352 728.3061 312.2512 728.2936 312.5466 728.2627 C 312.8414 728.2324 313.0597 728.2202 313.2096 728.2202 C 314.2290 728.2202 314.7369 728.8549 314.7369 730.1310 Z" fill="#2b6e00" fill-rule="nonzero"/>
  <path d="M 358.3256 736.0007 L 355.7455 744.9647 L 353.1050 736.0007 Z Z M 356.4142 757.3683 L 360.3127 757.3683 L 368.7083 728.3066 L 371.5801 728.3066 L 371.5801 724.7563 L 357.7255 724.7563 L 357.7255 728.3066 L 360.5822 728.3066 L 359.3976 732.4523 L 352.0755 732.4523 C 351.6129 731.0395 351.3838 730.0480 351.3838 729.4680 C 351.3838 728.8152 351.7809 728.4291 352.5812 728.3066 L 354.3018 728.3066 L 354.3018 724.7563 L 345.0552 724.7563 L 345.0552 728.3066 C 346.3795 728.3066 347.2614 728.5510 347.7067 729.0386 C 348.0746 729.4456 348.5251 730.5690 349.0611 732.4061 Z" fill="#2b6e00" fill-rule="nonzero"/>
  <path d="M 388.9709 724.7568 L 379.4247 748.1758 C 379.4247 746.8387 379.4117 744.8329 379.3887 742.1570 C 379.3737 739.4777 379.3606 737.4705 379.3606 736.1354 C 379.3606 732.9810 379.3816 730.8825 379.4247 729.8325 C 379.4649 728.8917 379.8360 728.3860 380.5277 728.3075 L 382.2633 728.3075 L 382.2633 724.7568 L 373.6321 724.7568 L 373.6321 728.3075 C 373.7690 728.3075 373.9850 728.2922 374.2798 728.2641 C 374.5723 728.2338 374.7934 728.2210 374.9411 728.2210 C 375.9627 728.2210 376.4735 728.8534 376.4735 730.1324 L 376.4735 751.7948 L 375.4468 753.8207 L 373.6321 753.8207 L 373.6321 757.3683 L 384.7107 757.3683 L 392.6460 737.5720 L 392.6460 751.9527 C 392.6460 753.2436 392.1222 753.8865 391.0674 753.8865 C 390.9229 753.8865 390.7066 753.8763 390.4220 753.8562 C 390.1374 753.8309 389.9341 753.8207 389.8097 753.8207 L 389.8097 757.3683 L 398.4386 757.3683 L 398.4386 753.8207 C 398.3040 753.8207 398.0849 753.8309 397.7955 753.8562 C 397.4984 753.8763 397.2773 753.8865 397.1273 753.8865 C 396.1103 753.8865 395.5972 753.2436 395.5972 751.9527 L 395.5972 724.7568 Z" fill="#2b6e00" fill-rule="nonzero"/>
  <path d="M 414.1242 728.3075 L 414.1242 724.7568 L 400.2846 724.7568 L 400.2846 728.3075 L 403.1240 728.3075 L 403.1240 753.8207 L 400.2846 753.8207 L 400.2846 757.3683 L 414.1242 757.3683 L 414.1242 753.8207 L 411.2855 753.8207 L 411.2855 728.3075 Z" fill="#2b6e00" fill-rule="nonzero"/>
  <path d="M 255.7123 687.6641 L 257.7325 686.5177 C 257.5976 685.4530 257.3816 684.5632 257.0896 683.8512 C 256.7993 683.1374 256.4362 682.5983 256.0039 682.2351 C 255.5725 681.8715 255.0234 681.6883 254.3519 681.6883 C 253.5415 681.6883 252.8807 681.9126 252.3671 682.3542 C 251.8512 682.7964 251.4087 683.5745 251.0348 684.6900 C 250.6618 685.8037 250.4758 687.2318 250.4758 688.9703 C 250.4758 691.2859 250.8035 693.0675 251.4600 694.3133 C 252.1157 695.5583 253.0457 696.1808 254.2453 696.1808 C 255.1856 696.1808 255.9254 695.8227 256.4614 695.1110 C 257.0003 694.3969 257.3994 693.3016 257.6611 691.8219 L 255.6258 690.9710 C 255.5544 691.3976 255.4809 691.7102 255.4016 691.9084 C 255.2720 692.2392 255.1150 692.4934 254.9290 692.6734 C 254.7411 692.8515 254.5328 692.9408 254.3014 692.9408 C 253.7799 692.9408 253.3813 692.5467 253.1018 691.7564 C 252.8909 691.1714 252.7863 690.2512 252.7863 688.9983 C 252.7863 687.4458 252.9111 686.3803 253.1625 685.8037 C 253.4139 685.2288 253.7649 684.9391 254.2224 684.9391 C 254.6626 684.9391 254.9954 685.1733 255.2216 685.6381 C 255.4478 686.1036 255.6099 686.7771 255.7123 687.6641" fill="#2b6e00" fill-rule="nonzero"/>
  <path d="M 260.8671 688.9062 C 260.8671 687.4934 261.0071 686.4738 261.2866 685.8584 C 261.5661 685.2390 261.9471 684.9312 262.4306 684.9312 C 262.9256 684.9312 263.3074 685.2339 263.5790 685.8383 C 263.8514 686.4435 263.9860 687.5286 263.9860 689.0970 C 263.9860 690.4162 263.8434 691.3817 263.5611 691.9892 C 263.2793 692.5992 262.8933 692.9019 262.4077 692.9019 C 261.9451 692.9019 261.5712 692.5944 261.2894 691.9767 C 261.0071 691.3565 260.8671 690.3349 260.8671 688.9062 Z M 258.5616 688.9263 C 258.5616 691.2139 258.9024 692.9935 259.5781 694.2694 C 260.2570 695.5424 261.2030 696.1808 262.4125 696.1808 C 263.6555 696.1808 264.6136 695.5554 265.2843 694.3025 C 265.9558 693.0496 266.2909 691.2952 266.2909 689.0409 C 266.2909 687.4038 266.1460 686.0597 265.8515 685.0128 C 265.5590 683.9629 265.1346 683.1468 264.5776 682.5645 C 264.0234 681.9803 263.3326 681.6906 262.5063 681.6906 C 261.6625 681.6906 260.9688 681.9420 260.4175 682.4458 C 259.8656 682.9486 259.4183 683.7440 259.0753 684.8348 C 258.7323 685.9247 258.5616 687.2873 258.5616 688.9263" fill="#2b6e00" fill-rule="nonzero"/>
  <path d="M 267.5475 695.9424 L 269.7001 695.9424 L 272.5092 688.1899 L 272.5092 695.9424 L 274.6823 695.9424 L 274.6823 681.9299 L 272.5092 681.9299 L 269.7160 689.6231 L 269.7160 681.9299 L 267.5475 681.9299 Z" fill="#2b6e00" fill-rule="nonzero"/>
  <path d="M 275.4819 695.9424 L 277.8914 695.9424 L 279.5686 685.8592 L 281.2286 695.9424 L 283.5672 695.9424 L 280.7963 681.9299 L 278.2976 681.9299 Z" fill="#2b6e00" fill-rule="nonzero"/>
  <path d="M 284.3158 695.9424 L 290.4945 695.9424 L 290.4945 692.9501 L 286.6263 692.9501 L 286.6263 690.7238 L 290.2122 690.7238 L 290.2122 687.8642 L 286.6263 687.8642 L 286.6263 685.1021 L 290.6062 685.1021 L 290.6062 681.9299 L 284.3158 681.9299 Z" fill="#2b6e00" fill-rule="nonzero"/>
  <path d="M 294.1920 690.2643 L 295.1654 690.2643 C 295.2692 690.2643 295.4730 690.3275 295.7749 690.4545 C 295.9277 690.5134 296.0521 690.6583 296.1488 690.8947 C 296.2454 691.1308 296.2936 691.4027 296.2936 691.7080 C 296.2936 692.1604 296.2171 692.5056 296.0651 692.7500 C 295.9123 692.9912 295.6249 693.1131 295.2034 693.1131 L 294.1920 693.1131 Z Z M 291.8764 681.9299 L 291.8764 695.9424 L 295.7193 695.9424 C 296.4311 695.9424 296.9751 695.8278 297.3535 695.5994 C 297.7294 695.3681 298.0321 694.9429 298.2634 694.3235 C 298.4924 693.7002 298.6092 692.9430 298.6092 692.0510 C 298.6092 691.2729 298.5199 690.6050 298.3448 690.0401 C 298.1667 689.4760 297.9255 689.0185 297.6157 688.6675 C 297.4198 688.4444 297.1502 688.2585 296.8072 688.1136 C 297.0816 687.9407 297.2820 687.7706 297.4068 687.5977 C 297.4910 687.4809 297.6157 687.2369 297.7756 686.8607 C 297.9354 686.4846 298.0451 686.1920 298.0984 685.9891 L 299.2144 681.9299 L 296.6114 681.9299 L 295.3786 686.2102 C 295.2207 686.7672 295.0838 687.1252 294.9593 687.2930 C 294.7944 687.5090 294.6061 687.6159 294.3952 687.6159 L 294.1920 687.6159 L 294.1920 681.9299 Z" fill="#2b6e00" fill-rule="nonzero"/>
  <path d="M 299.3369 695.9424 L 306.3441 695.9424 L 306.3441 692.4827 L 303.9934 692.4827 L 303.9934 681.9299 L 301.6885 681.9299 L 301.6885 692.4827 L 299.3369 692.4827 Z" fill="#2b6e00" fill-rule="nonzero"/>
  <path d="M 307.3816 695.9424 L 313.5606 695.9424 L 313.5606 692.9501 L 309.6921 692.9501 L 309.6921 690.7238 L 313.2788 690.7238 L 313.2788 687.8642 L 309.6921 687.8642 L 309.6921 685.1021 L 313.6723 685.1021 L 313.6723 681.9299 L 307.3816 681.9299 Z" fill="#2b6e00" fill-rule="nonzero"/>
  <path d="M 317.2578 690.2643 L 318.2312 690.2643 C 318.3358 690.2643 318.5391 690.3275 318.8415 690.4545 C 318.9934 690.5134 319.1182 690.6583 319.2148 690.8947 C 319.3112 691.1308 319.3594 691.4027 319.3594 691.7080 C 319.3594 692.1604 319.2840 692.5056 319.1312 692.7500 C 318.9784 692.9912 318.6916 693.1131 318.2695 693.1131 L 317.2578 693.1131 Z Z M 314.9425 681.9299 L 314.9425 695.9424 L 318.7854 695.9424 C 319.4972 695.9424 320.0411 695.8278 320.4201 695.5994 C 320.7963 695.3681 321.0982 694.9429 321.3292 694.3235 C 321.5585 693.7002 321.6750 692.9430 321.6750 692.0510 C 321.6750 691.2729 321.5866 690.6050 321.4108 690.0401 C 321.2328 689.4760 320.9913 689.0185 320.6815 688.6675 C 320.4856 688.4444 320.2163 688.2585 319.8733 688.1136 C 320.1477 687.9407 320.3487 687.7706 320.4734 687.5977 C 320.5570 687.4809 320.6815 687.2369 320.8416 686.8607 C 321.0015 686.4846 321.1109 686.1920 321.1642 685.9891 L 322.2802 681.9299 L 319.6772 681.9299 L 318.4447 686.2102 C 318.2873 686.7672 318.1499 687.1252 318.0251 687.2930 C 317.8602 687.5090 317.6722 687.6159 317.4610 687.6159 L 317.2578 687.6159 L 317.2578 681.9299 Z" fill="#2b6e00" fill-rule="nonzero"/>
  <path d="M 322.6167 686.5645 L 324.8099 686.8239 C 324.8583 686.1523 324.9547 685.6447 325.1004 685.2937 C 325.3365 684.7268 325.6767 684.4450 326.1169 684.4450 C 326.4469 684.4450 326.7011 684.5868 326.8791 684.8765 C 327.0572 685.1690 327.1456 685.5049 327.1456 685.8859 C 327.1456 686.2490 327.0620 686.5747 326.8922 686.8621 C 326.7213 687.1467 326.3272 687.4183 325.7099 687.6748 C 324.7010 688.1000 323.9793 688.6692 323.5470 689.3751 C 323.1147 690.0820 322.8965 690.9846 322.8965 692.0799 C 322.8965 692.8019 323.0082 693.4805 323.2293 694.1208 C 323.4532 694.7614 323.7863 695.2643 324.2336 695.6303 C 324.6780 695.9962 325.2906 696.1822 326.0656 696.1822 C 327.0189 696.1822 327.7488 695.8466 328.2466 695.1830 C 328.7472 694.5151 329.0448 693.4572 329.1415 692.0033 L 326.9679 691.7649 C 326.9095 692.3948 326.7904 692.8551 326.6048 693.1397 C 326.4188 693.4272 326.1651 693.5720 325.8394 693.5720 C 325.5701 693.5720 325.3697 693.4652 325.2322 693.2514 C 325.0973 693.0380 325.0290 692.7786 325.0290 692.4711 C 325.0290 692.2477 325.0845 692.0495 325.1968 691.8687 C 325.3056 691.6859 325.5627 691.5127 325.9692 691.3528 C 326.9786 690.9466 327.6998 690.5344 328.1349 690.1152 C 328.5723 689.6988 328.8892 689.1800 329.0882 688.5624 C 329.2863 687.9444 329.3850 687.2533 329.3850 686.4883 C 329.3850 685.5914 329.2532 684.7628 328.9887 684.0026 C 328.7242 683.2446 328.3532 682.6706 327.8778 682.2763 C 327.4030 681.8851 326.8057 681.6892 326.0809 681.6892 C 324.8127 681.6892 323.9359 682.1495 323.4453 683.0674 C 322.9577 683.9847 322.6802 685.1511 322.6167 686.5645" fill="#2b6e00" fill-rule="nonzero"/>
  <path d="M 337.5269 691.2009 C 337.7937 691.4752 338.0017 691.7729 338.1466 692.0957 C 338.2943 692.4155 338.3677 692.7211 338.3677 693.0077 C 338.3677 693.3081 338.3073 693.5596 338.1826 693.7679 C 338.0601 693.9740 337.8929 694.0783 337.6791 694.0783 C 337.4708 694.0783 337.2979 693.9638 337.1661 693.7347 C 337.0334 693.5034 336.9671 693.2341 336.9671 692.9212 C 336.9671 692.5252 337.1530 691.9529 337.5269 691.2009 Z M 336.7899 687.7973 C 336.5048 687.4211 336.3146 687.1014 336.2202 686.8318 C 336.1286 686.5645 336.0832 686.2799 336.0832 685.9831 C 336.0832 685.5177 336.1898 685.1035 336.4030 684.7404 C 336.6170 684.3764 336.8937 684.1936 337.2367 684.1936 C 337.6054 684.1936 338.0227 684.4657 338.4825 685.0069 C 338.0428 685.6424 337.4787 686.5753 336.7899 687.7973 Z M 339.9080 688.7455 L 341.5272 688.0669 C 341.4436 687.5056 341.3591 687.0552 341.2837 686.7173 C 341.2043 686.3794 341.0955 685.9831 340.9529 685.5228 L 341.7310 684.5193 C 341.8245 684.4045 341.9464 684.2670 342.0969 684.1071 L 340.9809 681.7000 C 340.7777 681.9038 340.5668 682.1402 340.3477 682.4066 C 340.1294 682.6762 339.9333 682.9047 339.7612 683.0955 C 339.4003 682.6482 339.0415 682.3230 338.6835 682.1192 C 338.1826 681.8397 337.6185 681.7000 336.9830 681.7000 C 335.9889 681.7000 335.2496 682.0889 334.7640 682.8670 C 334.2784 683.6423 334.0341 684.5848 334.0341 685.6957 C 334.0341 686.4911 334.1798 687.2434 334.4644 687.9552 C 334.7490 688.6670 335.2136 689.2671 335.8619 689.7569 C 335.5926 690.3751 335.4043 690.9140 335.3029 691.3687 C 335.2014 691.8233 335.1501 692.2865 335.1501 692.7593 C 335.1501 693.7529 335.3533 694.5712 335.7553 695.2167 C 336.1595 695.8602 336.7721 696.1799 337.5927 696.1799 C 338.4312 696.1799 339.0466 695.8752 339.4406 695.2629 C 339.8346 694.6498 340.0299 693.9179 340.0299 693.0641 C 340.0299 692.5864 339.9695 692.1289 339.8499 691.6887 C 339.7303 691.2490 339.5854 690.8910 339.4154 690.6186 C 339.2447 690.3442 338.9428 689.9349 338.5026 689.3938 C 338.8663 688.7123 339.2447 688.0776 339.6387 687.4926 C 339.7453 687.8866 339.8346 688.3030 339.9080 688.7455" fill="#2b6e00" fill-rule="nonzero"/>
  <path d="M 349.1093 690.2643 L 350.0827 690.2643 C 350.1870 690.2643 350.3903 690.3275 350.6930 690.4545 C 350.8449 690.5134 350.9697 690.6583 351.0660 690.8947 C 351.1627 691.1308 351.2109 691.4027 351.2109 691.7080 C 351.2109 692.1604 351.1352 692.5056 350.9824 692.7500 C 350.8299 692.9912 350.5431 693.1131 350.1210 693.1131 L 349.1093 693.1131 Z Z M 346.7937 681.9299 L 346.7937 695.9424 L 350.6366 695.9424 C 351.3487 695.9424 351.8926 695.8278 352.2716 695.5994 C 352.6475 695.3681 352.9494 694.9429 353.1815 694.3235 C 353.4097 693.7002 353.5265 692.9430 353.5265 692.0510 C 353.5265 691.2729 353.4381 690.6050 353.2620 690.0401 C 353.0843 689.4760 352.8428 689.0185 352.5330 688.6675 C 352.3371 688.4444 352.0675 688.2585 351.7245 688.1136 C 351.9992 687.9407 352.2002 687.7706 352.3249 687.5977 C 352.4083 687.4809 352.5330 687.2369 352.6929 686.8607 C 352.8530 686.4846 352.9624 686.1920 353.0157 685.9891 L 354.1317 681.9299 L 351.5287 681.9299 L 350.2959 686.2102 C 350.1388 686.7672 350.0014 687.1252 349.8766 687.2930 C 349.7117 687.5090 349.5237 687.6159 349.3125 687.6159 L 349.1093 687.6159 L 349.1093 681.9299 Z" fill="#2b6e00" fill-rule="nonzero"/>
  <path d="M 354.8653 695.9424 L 361.0440 695.9424 L 361.0440 692.9501 L 357.1758 692.9501 L 357.1758 690.7238 L 360.7622 690.7238 L 360.7622 687.8642 L 357.1758 687.8642 L 357.1758 685.1021 L 361.1563 685.1021 L 361.1563 681.9299 L 354.8653 681.9299 Z" fill="#2b6e00" fill-rule="nonzero"/>
  <path d="M 367.3624 687.6641 L 369.3835 686.5177 C 369.2486 685.4530 369.0326 684.5632 368.7409 683.8512 C 368.4504 683.1374 368.0872 682.5983 367.6550 682.2351 C 367.2227 681.8715 366.6739 681.6883 366.0029 681.6883 C 365.1925 681.6883 364.5317 681.9126 364.0181 682.3542 C 363.5022 682.7964 363.0600 683.5745 362.6858 684.6900 C 362.3128 685.8037 362.1268 687.2318 362.1268 688.9703 C 362.1268 691.2859 362.4548 693.0675 363.1102 694.3133 C 363.7667 695.5583 364.6967 696.1808 365.8963 696.1808 C 366.8366 696.1808 367.5764 695.8227 368.1125 695.1110 C 368.6513 694.3969 369.0507 693.3016 369.3121 691.8219 L 367.2768 690.9710 C 367.2054 691.3976 367.1314 691.7102 367.0526 691.9084 C 366.9231 692.2392 366.7652 692.4934 366.5801 692.6734 C 366.3921 692.8515 366.1838 692.9408 365.9525 692.9408 C 365.4309 692.9408 365.0318 692.5467 364.7523 691.7564 C 364.5420 691.1714 364.4374 690.2512 364.4374 688.9983 C 364.4374 687.4458 364.5621 686.3803 364.8135 685.8037 C 365.0649 685.2288 365.4159 684.9391 365.8734 684.9391 C 366.3128 684.9391 366.6464 685.1733 366.8726 685.6381 C 367.0988 686.1036 367.2609 686.7771 367.3624 687.6641" fill="#2b6e00" fill-rule="nonzero"/>
  <path d="M 369.7495 695.9424 L 372.3092 695.9424 L 373.8138 691.2145 L 375.3181 695.9424 L 377.8648 695.9424 L 374.9649 687.7987 L 374.9649 681.9299 L 372.6573 681.9299 L 372.6573 687.7987 Z" fill="#2b6e00" fill-rule="nonzero"/>
  <path d="M 382.9507 687.6641 L 384.9710 686.5177 C 384.8363 685.4530 384.6200 684.5632 384.3283 683.8512 C 384.0386 683.1374 383.6747 682.5983 383.2424 682.2351 C 382.8110 681.8715 382.2619 681.6883 381.5904 681.6883 C 380.7799 681.6883 380.1192 681.9126 379.6055 682.3542 C 379.0896 682.7964 378.6474 683.5745 378.2741 684.6900 C 377.9002 685.8037 377.7143 687.2318 377.7143 688.9703 C 377.7143 691.2859 378.0422 693.0675 378.6985 694.3133 C 379.3541 695.5583 380.2842 696.1808 381.4838 696.1808 C 382.4240 696.1808 383.1639 695.8227 383.6999 695.1110 C 384.2388 694.3969 384.6382 693.3016 384.8995 691.8219 L 382.8643 690.9710 C 382.7928 691.3976 382.7194 691.7102 382.6403 691.9084 C 382.5105 692.2392 382.3534 692.4934 382.1675 692.6734 C 381.9796 692.8515 381.7712 692.9408 381.5399 692.9408 C 381.0192 692.9408 380.6201 692.5467 380.3403 691.7564 C 380.1294 691.1714 380.0248 690.2512 380.0248 688.9983 C 380.0248 687.4458 380.1495 686.3803 380.4009 685.8037 C 380.6532 685.2288 381.0033 684.9391 381.4608 684.9391 C 381.9010 684.9391 382.2338 685.1733 382.4600 685.6381 C 382.6862 686.1036 382.8492 686.7771 382.9507 687.6641" fill="#2b6e00" fill-rule="nonzero"/>
  <path d="M 386.0906 695.9424 L 388.3961 695.9424 L 388.3961 685.3788 L 391.9918 685.3788 L 391.9918 681.9299 L 386.0906 681.9299 Z" fill="#2b6e00" fill-rule="nonzero"/>
  <path d="M 393.0367 695.9424 L 399.2153 695.9424 L 399.2153 692.9501 L 395.3472 692.9501 L 395.3472 690.7238 L 398.9330 690.7238 L 398.9330 687.8642 L 395.3472 687.8642 L 395.3472 685.1021 L 399.3270 685.1021 L 399.3270 681.9299 L 393.0367 681.9299 Z" fill="#2b6e00" fill-rule="nonzero"/>
  <path d="M 402.9129 690.2643 L 403.8863 690.2643 C 403.9906 690.2643 404.1938 690.3275 404.4966 690.4545 C 404.6485 690.5134 404.7732 690.6583 404.8696 690.8947 C 404.9663 691.1308 405.0145 691.4027 405.0145 691.7080 C 405.0145 692.1604 404.9382 692.5056 404.7860 692.7500 C 404.6335 692.9912 404.3458 693.1131 403.9245 693.1131 L 402.9129 693.1131 Z Z M 400.5972 681.9299 L 400.5972 695.9424 L 404.4402 695.9424 C 405.1522 695.9424 405.6962 695.8278 406.0743 695.5994 C 406.4505 695.3681 406.7529 694.9429 406.9843 694.3235 C 407.2133 693.7002 407.3301 692.9430 407.3301 692.0510 C 407.3301 691.2729 407.2414 690.6050 407.0656 690.0401 C 406.8876 689.4760 406.6464 689.0185 406.3365 688.6675 C 406.1407 688.4444 405.8711 688.2585 405.5281 688.1136 C 405.8028 687.9407 406.0037 687.7706 406.1276 687.5977 C 406.2118 687.4809 406.3365 687.2369 406.4964 686.8607 C 406.6566 686.4846 406.7660 686.1920 406.8193 685.9891 L 407.9353 681.9299 L 405.3322 681.9299 L 404.0994 686.2102 C 403.9424 686.7672 403.8049 687.1252 403.6802 687.2930 C 403.5152 687.5090 403.3270 687.6159 403.1161 687.6159 L 402.9129 687.6159 L 402.9129 681.9299 Z" fill="#2b6e00" fill-rule="nonzero"/>
  <path d="M 408.2717 686.5645 L 410.4649 686.8239 C 410.5131 686.1523 410.6098 685.6447 410.7546 685.2937 C 410.9907 684.7268 411.3315 684.4450 411.7717 684.4450 C 412.1019 684.4450 412.3562 684.5868 412.5342 684.8765 C 412.7119 685.1690 412.8007 685.5049 412.8007 685.8859 C 412.8007 686.2490 412.7170 686.5747 412.5464 686.8621 C 412.3763 687.1467 411.9823 687.4183 411.3646 687.6748 C 410.3561 688.1000 409.6341 688.6692 409.2018 689.3751 C 408.7695 690.0820 408.5512 690.9846 408.5512 692.0799 C 408.5512 692.8019 408.6629 693.4805 408.8840 694.1208 C 409.1074 694.7614 409.4410 695.2643 409.8878 695.6303 C 410.3331 695.9962 410.9454 696.1822 411.7207 696.1822 C 412.6740 696.1822 413.4030 695.8466 413.9016 695.1830 C 414.4022 694.5151 414.6999 693.4572 414.7963 692.0033 L 412.6226 691.7649 C 412.5643 692.3948 412.4446 692.8551 412.2595 693.1397 C 412.0736 693.4272 411.8202 693.5720 411.4945 693.5720 C 411.2249 693.5720 411.0239 693.4652 410.8870 693.2514 C 410.7523 693.0380 410.6837 692.7786 410.6837 692.4711 C 410.6837 692.2477 410.7393 692.0495 410.8510 691.8687 C 410.9604 691.6859 411.2169 691.5127 411.6240 691.3528 C 412.6329 690.9466 413.3546 690.5344 413.7900 690.1152 C 414.2265 689.6988 414.5443 689.1800 414.7424 688.5624 C 414.9411 687.9444 415.0397 687.2533 415.0397 686.4883 C 415.0397 685.5914 414.9079 684.7628 414.6437 684.0026 C 414.3793 683.2446 414.0082 682.6706 413.5326 682.2763 C 413.0578 681.8851 412.4605 681.6892 411.7357 681.6892 C 410.4677 681.6892 409.5910 682.1495 409.1003 683.0674 C 408.6119 683.9847 408.3352 685.1511 408.2717 686.5645" fill="#2b6e00" fill-rule="nonzero"/>
  </g>
</svg>
